<svg xmlns="http://www.w3.org/2000/svg" xmlns:xlink="http://www.w3.org/1999/xlink" width="500" zoomAndPan="magnify" viewBox="0 0 375 374.999991" height="500" preserveAspectRatio="xMidYMid meet" version="1.0"><defs><g/><clipPath id="ffeee79a94"><path d="M 141 175 L 193 175 L 193 227 L 141 227 Z M 141 175 " clip-rule="nonzero"/></clipPath><clipPath id="53c1443dd7"><path d="M 141.273438 216.132812 L 182.222656 175.179688 L 192.546875 185.503906 L 151.59375 226.453125 Z M 141.273438 216.132812 " clip-rule="nonzero"/></clipPath><clipPath id="74d3ddb599"><path d="M 133 163 L 195 163 L 195 225 L 133 225 Z M 133 163 " clip-rule="nonzero"/></clipPath><clipPath id="bb2455a3fe"><path d="M 133.632812 214.59375 L 184.867188 163.359375 L 194.710938 173.203125 L 143.472656 224.4375 Z M 133.632812 214.59375 " clip-rule="nonzero"/></clipPath><clipPath id="810bb25227"><path d="M 159.597656 189.695312 L 185.980469 189.695312 L 185.980469 207.65625 L 159.597656 207.65625 Z M 159.597656 189.695312 " clip-rule="nonzero"/></clipPath><clipPath id="777bdd3772"><path d="M 191.714844 94.441406 L 227.09375 94.441406 L 227.09375 114.09375 L 191.714844 114.09375 Z M 191.714844 94.441406 " clip-rule="nonzero"/></clipPath><clipPath id="052961f3a5"><path d="M 182 80 L 251 80 L 251 148 L 182 148 Z M 182 80 " clip-rule="nonzero"/></clipPath><clipPath id="eaa1ae0467"><path d="M 250.421875 91.230469 L 193.820312 147.832031 L 182.945312 136.957031 L 239.546875 80.355469 Z M 250.421875 91.230469 " clip-rule="nonzero"/></clipPath><clipPath id="c2af3ed5b2"><path d="M 194.125 104.269531 L 209.40625 104.269531 L 209.40625 128.183594 L 194.125 128.183594 Z M 194.125 104.269531 " clip-rule="nonzero"/></clipPath></defs><rect x="-37.5" width="450" fill="#ffffff" y="-37.499999" height="449.999989" fill-opacity="1"/><rect x="-37.5" width="450" fill="#ffffff" y="-37.499999" height="449.999989" fill-opacity="1"/><g fill="#000000" fill-opacity="1"><g transform="translate(190.079171, 202.629071)"><g><path d="M 50.3125 -97.84375 C 46.3125 -97.84375 43.410156 -97.015625 41.609375 -95.359375 C 39.804688 -93.703125 38.90625 -90.675781 38.90625 -86.28125 L 38.90625 -50.15625 L 62.453125 -78.09375 C 62.640625 -78.289062 64.097656 -80.144531 66.828125 -83.65625 C 69.566406 -87.164062 70.9375 -90.039062 70.9375 -92.28125 C 70.9375 -94.625 70.054688 -96.109375 68.296875 -96.734375 C 66.546875 -97.367188 63.816406 -97.738281 60.109375 -97.84375 L 60.109375 -100.46875 L 97.84375 -100.46875 L 97.84375 -97.84375 C 94.625 -97.550781 91.695312 -96.816406 89.0625 -95.640625 C 86.4375 -94.472656 83.390625 -92.304688 79.921875 -89.140625 C 76.460938 -85.972656 72.195312 -81.316406 67.125 -75.171875 L 57.328125 -63.328125 L 87.3125 -16.375 C 90.132812 -11.894531 92.179688 -8.828125 93.453125 -7.171875 C 94.722656 -5.515625 96.039062 -4.34375 97.40625 -3.65625 C 98.769531 -2.96875 100.671875 -2.625 103.109375 -2.625 L 103.109375 0 L 56.3125 0 L 56.3125 -2.625 C 59.820312 -2.625 62.207031 -2.914062 63.46875 -3.5 C 64.738281 -4.09375 65.375 -5.117188 65.375 -6.578125 C 65.375 -7.359375 65.15625 -8.285156 64.71875 -9.359375 C 64.28125 -10.429688 63.234375 -12.332031 61.578125 -15.0625 L 42.265625 -45.78125 L 38.90625 -41.828125 L 38.90625 -15.359375 C 38.90625 -10.578125 39.734375 -7.257812 41.390625 -5.40625 C 43.046875 -3.550781 46.019531 -2.625 50.3125 -2.625 L 50.3125 0 L 1.90625 0 L 1.90625 -2.625 C 5.3125 -2.726562 7.941406 -3.070312 9.796875 -3.65625 C 11.648438 -4.238281 13.0625 -5.429688 14.03125 -7.234375 C 15.007812 -9.035156 15.5 -11.742188 15.5 -15.359375 L 15.5 -85.265625 C 15.5 -88.484375 15.15625 -90.96875 14.46875 -92.71875 C 13.789062 -94.476562 12.476562 -95.769531 10.53125 -96.59375 C 8.582031 -97.425781 5.707031 -97.84375 1.90625 -97.84375 L 1.90625 -100.46875 L 50.3125 -100.46875 Z M 50.3125 -97.84375 "/></g></g></g><g fill="#000000" fill-opacity="1"><g transform="translate(82.326894, 198.733848)"><g><path d="M 34.8125 -5.40625 L 62.015625 -5.40625 C 71.660156 -5.40625 79.554688 -7.867188 85.703125 -12.796875 C 91.847656 -17.722656 95.75 -25.207031 97.40625 -35.25 L 100.1875 -35.25 L 97.109375 0 L 4.828125 0 L 65.375 -95.0625 L 44.90625 -95.0625 C 36.519531 -95.0625 29.910156 -93.160156 25.078125 -89.359375 C 20.253906 -85.554688 17.0625 -79.65625 15.5 -71.65625 L 13.15625 -71.65625 L 15.5 -100.46875 L 95.0625 -100.46875 Z M 34.8125 -5.40625 "/></g></g></g><path stroke-linecap="butt" transform="matrix(0.888377, -0.888377, 0.888377, 0.888377, 123.140284, 217.927486)" fill="none" stroke-linejoin="miter" d="M 0.00115144 1.999897 L 150.393943 1.999897 " stroke="#000000" stroke-width="4" stroke-opacity="1" stroke-miterlimit="4"/><g fill="#000000" fill-opacity="1"><g transform="translate(92.844491, 276.755138)"><g><path d="M 26.65625 -21.921875 L 25.859375 -21.921875 C 25.441406 -24.242188 24.609375 -26.007812 23.359375 -27.21875 C 22.109375 -28.425781 20.46875 -29.03125 18.4375 -29.03125 L 12.421875 -29.03125 L 12.421875 -16.484375 L 13.359375 -16.484375 C 14.484375 -16.484375 15.410156 -16.660156 16.140625 -17.015625 C 16.867188 -17.367188 17.484375 -18.054688 17.984375 -19.078125 C 18.492188 -20.109375 18.867188 -21.578125 19.109375 -23.484375 L 19.921875 -23.484375 L 19.921875 -7.90625 L 19.109375 -7.90625 C 18.785156 -10.613281 18.15625 -12.441406 17.21875 -13.390625 C 16.28125 -14.347656 15.050781 -14.828125 13.53125 -14.828125 L 12.421875 -14.828125 L 12.421875 -4.953125 C 12.421875 -3.671875 12.613281 -2.800781 13 -2.34375 C 13.382812 -1.882812 14.128906 -1.65625 15.234375 -1.65625 L 18.4375 -1.65625 C 21.0625 -1.65625 23.117188 -2.359375 24.609375 -3.765625 C 26.097656 -5.179688 27.226562 -7.082031 28 -9.46875 L 28.796875 -9.46875 L 27.421875 0 L 0.796875 0 L 0.796875 -0.796875 L 1.828125 -0.796875 C 2.867188 -0.796875 3.632812 -0.953125 4.125 -1.265625 C 4.625 -1.578125 4.9375 -1.988281 5.0625 -2.5 C 5.195312 -3.007812 5.265625 -3.695312 5.265625 -4.5625 L 5.265625 -26.21875 C 5.265625 -27.675781 4.929688 -28.640625 4.265625 -29.109375 C 3.597656 -29.585938 2.441406 -29.84375 0.796875 -29.875 L 0.796875 -30.671875 L 26.65625 -30.671875 Z M 26.65625 -21.921875 "/></g></g></g><g fill="#000000" fill-opacity="1"><g transform="translate(132.142621, 276.755138)"><g><path d="M 18.046875 -29.875 C 16.523438 -29.84375 15.421875 -29.757812 14.734375 -29.625 C 14.046875 -29.488281 13.53125 -29.15625 13.1875 -28.625 C 12.851562 -28.09375 12.6875 -27.210938 12.6875 -25.984375 L 12.6875 -4.109375 C 12.6875 -3.242188 12.898438 -2.617188 13.328125 -2.234375 C 13.765625 -1.847656 14.457031 -1.65625 15.40625 -1.65625 L 18.671875 -1.65625 C 21.171875 -1.65625 23.15625 -2.367188 24.625 -3.796875 C 26.101562 -5.222656 27.195312 -7.441406 27.90625 -10.453125 L 28.71875 -10.453125 L 27.640625 0 L 0.71875 0 L 0.71875 -0.796875 C 2.019531 -0.828125 3 -0.9375 3.65625 -1.125 C 4.3125 -1.320312 4.785156 -1.6875 5.078125 -2.21875 C 5.378906 -2.757812 5.53125 -3.582031 5.53125 -4.6875 L 5.53125 -25.984375 C 5.53125 -27.210938 5.359375 -28.09375 5.015625 -28.625 C 4.679688 -29.15625 4.207031 -29.488281 3.59375 -29.625 C 2.976562 -29.757812 2.019531 -29.84375 0.71875 -29.875 L 0.71875 -30.671875 L 18.046875 -30.671875 Z M 18.046875 -29.875 "/></g></g></g><g fill="#000000" fill-opacity="1"><g transform="translate(171.440751, 276.755138)"><g><path d="M 26.65625 -21.921875 L 25.859375 -21.921875 C 25.441406 -24.242188 24.609375 -26.007812 23.359375 -27.21875 C 22.109375 -28.425781 20.46875 -29.03125 18.4375 -29.03125 L 12.421875 -29.03125 L 12.421875 -16.484375 L 13.359375 -16.484375 C 14.484375 -16.484375 15.410156 -16.660156 16.140625 -17.015625 C 16.867188 -17.367188 17.484375 -18.054688 17.984375 -19.078125 C 18.492188 -20.109375 18.867188 -21.578125 19.109375 -23.484375 L 19.921875 -23.484375 L 19.921875 -7.90625 L 19.109375 -7.90625 C 18.785156 -10.613281 18.15625 -12.441406 17.21875 -13.390625 C 16.28125 -14.347656 15.050781 -14.828125 13.53125 -14.828125 L 12.421875 -14.828125 L 12.421875 -4.953125 C 12.421875 -3.671875 12.613281 -2.800781 13 -2.34375 C 13.382812 -1.882812 14.128906 -1.65625 15.234375 -1.65625 L 18.4375 -1.65625 C 21.0625 -1.65625 23.117188 -2.359375 24.609375 -3.765625 C 26.097656 -5.179688 27.226562 -7.082031 28 -9.46875 L 28.796875 -9.46875 L 27.421875 0 L 0.796875 0 L 0.796875 -0.796875 L 1.828125 -0.796875 C 2.867188 -0.796875 3.632812 -0.953125 4.125 -1.265625 C 4.625 -1.578125 4.9375 -1.988281 5.0625 -2.5 C 5.195312 -3.007812 5.265625 -3.695312 5.265625 -4.5625 L 5.265625 -26.21875 C 5.265625 -27.675781 4.929688 -28.640625 4.265625 -29.109375 C 3.597656 -29.585938 2.441406 -29.84375 0.796875 -29.875 L 0.796875 -30.671875 L 26.65625 -30.671875 Z M 26.65625 -21.921875 "/></g></g></g><g fill="#000000" fill-opacity="1"><g transform="translate(210.738886, 276.755138)"><g><path d="M 18 -31.34375 C 19.539062 -31.34375 20.816406 -31.207031 21.828125 -30.9375 C 22.847656 -30.675781 23.9375 -30.304688 25.09375 -29.828125 C 25.21875 -29.765625 25.523438 -29.632812 26.015625 -29.4375 C 26.503906 -29.25 26.941406 -29.15625 27.328125 -29.15625 C 28.460938 -29.15625 29.160156 -29.867188 29.421875 -31.296875 L 30.328125 -31.296875 L 30.328125 -21.03125 L 29.421875 -21.03125 C 29.191406 -22.726562 28.59375 -24.207031 27.625 -25.46875 C 26.65625 -26.738281 25.484375 -27.707031 24.109375 -28.375 C 22.742188 -29.050781 21.347656 -29.390625 19.921875 -29.390625 C 17.890625 -29.390625 16.125 -28.785156 14.625 -27.578125 C 13.125 -26.367188 11.976562 -24.691406 11.1875 -22.546875 C 10.394531 -20.410156 10 -17.984375 10 -15.265625 C 10 -10.890625 10.863281 -7.457031 12.59375 -4.96875 C 14.320312 -2.488281 16.703125 -1.25 19.734375 -1.25 C 21.671875 -1.25 23.410156 -1.707031 24.953125 -2.625 C 26.503906 -3.550781 28.085938 -4.953125 29.703125 -6.828125 L 29.703125 -4.375 C 28.035156 -2.613281 26.300781 -1.335938 24.5 -0.546875 C 22.695312 0.234375 20.632812 0.625 18.3125 0.625 C 15.03125 0.625 12.160156 -0.0546875 9.703125 -1.421875 C 7.253906 -2.796875 5.363281 -4.65625 4.03125 -7 C 2.707031 -9.351562 2.046875 -11.960938 2.046875 -14.828125 C 2.046875 -17.773438 2.769531 -20.515625 4.21875 -23.046875 C 5.664062 -25.578125 7.609375 -27.59375 10.046875 -29.09375 C 12.484375 -30.59375 15.132812 -31.34375 18 -31.34375 Z M 18 -31.34375 "/></g></g></g><g fill="#000000" fill-opacity="1"><g transform="translate(252.359038, 276.755138)"><g><path d="M 28.53125 -22.640625 L 27.734375 -22.640625 C 27.523438 -24.753906 26.859375 -26.347656 25.734375 -27.421875 C 24.617188 -28.492188 23.347656 -29.03125 21.921875 -29.03125 L 18.4375 -29.03125 L 18.4375 -4.828125 C 18.4375 -3.722656 18.585938 -2.882812 18.890625 -2.3125 C 19.191406 -1.75 19.65625 -1.363281 20.28125 -1.15625 C 20.90625 -0.945312 21.78125 -0.828125 22.90625 -0.796875 L 22.90625 0 L 6.828125 0 L 6.828125 -0.796875 C 7.960938 -0.796875 8.832031 -0.878906 9.4375 -1.046875 C 10.050781 -1.210938 10.515625 -1.578125 10.828125 -2.140625 C 11.140625 -2.703125 11.296875 -3.566406 11.296875 -4.734375 L 11.296875 -29.03125 L 7.453125 -29.03125 C 6.117188 -29.03125 4.929688 -28.441406 3.890625 -27.265625 C 2.847656 -26.085938 2.222656 -24.546875 2.015625 -22.640625 L 1.203125 -22.640625 L 1.203125 -30.671875 L 28.53125 -30.671875 Z M 28.53125 -22.640625 "/></g></g></g><g clip-path="url(#ffeee79a94)"><g clip-path="url(#53c1443dd7)"><path fill="#ffffff" d="M 141.273438 216.132812 L 182.238281 175.167969 L 192.558594 185.488281 L 151.59375 226.453125 Z M 141.273438 216.132812 " fill-opacity="1" fill-rule="nonzero"/></g></g><g clip-path="url(#74d3ddb599)"><g clip-path="url(#bb2455a3fe)"><path fill="#ffffff" d="M 133.632812 214.59375 L 184.882812 163.34375 L 194.722656 173.1875 L 143.472656 224.4375 Z M 133.632812 214.59375 " fill-opacity="1" fill-rule="nonzero"/></g></g><g clip-path="url(#810bb25227)"><path fill="#ffffff" d="M 159.597656 207.65625 L 159.597656 189.695312 L 185.976562 189.695312 L 185.976562 207.65625 Z M 159.597656 207.65625 " fill-opacity="1" fill-rule="nonzero"/></g><g clip-path="url(#777bdd3772)"><path fill="#ffffff" d="M 227.09375 94.441406 L 227.09375 114.09375 L 191.703125 114.09375 L 191.703125 94.441406 Z M 227.09375 94.441406 " fill-opacity="1" fill-rule="nonzero"/></g><g clip-path="url(#052961f3a5)"><g clip-path="url(#eaa1ae0467)"><path fill="#ffffff" d="M 250.421875 91.230469 L 193.800781 147.847656 L 182.929688 136.976562 L 239.546875 80.355469 Z M 250.421875 91.230469 " fill-opacity="1" fill-rule="nonzero"/></g></g><g clip-path="url(#c2af3ed5b2)"><path fill="#ffffff" d="M 209.40625 104.269531 L 209.40625 128.199219 L 194.125 128.199219 L 194.125 104.269531 Z M 209.40625 104.269531 " fill-opacity="1" fill-rule="nonzero"/></g></svg>